HIERARCHY
ROOT Hips
{
	OFFSET 0.000000 0.000000 0.000000
	CHANNELS 6 Xposition Yposition Zposition Zrotation Yrotation Xrotation 
	JOINT LHipJoint
	{
		OFFSET 0.000000 0.000000 0.000000
		CHANNELS 3 Zrotation Yrotation Xrotation
		JOINT LeftUpLeg
		{
			OFFSET 1.363060 -1.794630 0.839290
			CHANNELS 3 Zrotation Yrotation Xrotation
			JOINT LeftLeg
			{
				OFFSET 2.448110 -6.726130 0.000000
				CHANNELS 3 Zrotation Yrotation Xrotation
				JOINT LeftFoot
				{
					OFFSET 2.562200 -7.039590 0.000000
					CHANNELS 3 Zrotation Yrotation Xrotation
					JOINT LeftToeBase
					{
						OFFSET 0.157640 -0.433110 2.322550
						CHANNELS 3 Zrotation Yrotation Xrotation
						End Site
						{
							OFFSET 0.000000 0.000000 0.000000
						}
					}
				}
			}
		}
	}
	JOINT RHipJoint
	{
		OFFSET 0.000000 0.000000 0.000000
		CHANNELS 3 Zrotation Yrotation Xrotation
		JOINT RightUpLeg
		{
			OFFSET -1.305520 -1.794630 0.839290
			CHANNELS 3 Zrotation Yrotation Xrotation
			JOINT RightLeg
			{
				OFFSET -2.542530 -6.985550 0.000000
				CHANNELS 3 Zrotation Yrotation Xrotation
				JOINT RightFoot
				{
					OFFSET -2.568260 -7.056230 0.000000
					CHANNELS 3 Zrotation Yrotation Xrotation
					JOINT RightToeBase
					{
						OFFSET -0.164730 -0.452590 2.363150
						CHANNELS 3 Zrotation Yrotation Xrotation
						End Site
						{
							OFFSET 0.000000 0.000000 0.000000
						}
					}
				}
			}
		}
	}
}
MOTION
Frames: 30
Frame Time: 0.008333
-0.598200 17.250204 0.700480 5.404325 -83.042769 3.165979 -9.944483 1.113432 1.866747 -12.348799 -3.315974 -14.378844 -2.203234 -0.493089 10.062876 1.010479 5.686198 -5.691322 0.242300 -0.000000 -29.825500 10.686025 -0.186351 -1.388931 3.419049 -5.647639 -31.053078 -1.141554 -3.728563 57.567169 -2.183777 -10.989270 11.889062 -3.475301 -0.000000 -76.628400
-0.589449 17.255169 0.720274 3.661972 -82.861375 5.080049 -9.995327 1.023067 1.834297 -12.162246 -3.282263 -14.595684 -2.180036 -0.516727 10.076931 0.994957 5.602467 -5.659068 0.242900 0.000000 -29.873700 10.689745 -0.055607 -1.319343 3.557890 -5.285739 -33.363035 -1.343699 -3.899676 60.705502 -2.236262 -10.845397 14.255803 -3.712700 -0.000000 -76.271601
-0.580101 17.261008 0.739627 1.808819 -82.658996 7.113850 -10.039435 0.929091 1.807024 -11.948325 -3.289815 -14.800315 -2.152129 -0.543340 10.054238 0.983785 5.553170 -5.610261 0.247400 0.000001 -29.911100 10.685857 0.079004 -1.253943 3.721021 -4.912128 -35.664762 -1.527941 -4.069965 63.746505 -2.280941 -10.610879 16.365166 -3.863100 0.000000 -75.870801
-0.570718 17.267953 0.759134 -0.215474 -82.422703 9.342900 -10.076518 0.833052 1.794633 -11.696241 -3.345781 -15.036994 -2.118946 -0.572104 10.027474 0.976146 5.528147 -5.553838 0.254501 0.000000 -29.933700 10.676321 0.211557 -1.187750 3.921416 -4.538840 -37.989274 -1.700886 -4.244907 66.698473 -2.310469 -10.276962 18.138658 -3.912600 0.000000 -75.327999
-0.561045 17.276050 0.778911 -2.369954 -82.165150 11.715772 -10.105660 0.736108 1.791312 -11.406840 -3.447298 -15.275056 -2.079987 -0.602672 9.974287 0.973390 5.539706 -5.482160 0.265600 -0.000000 -29.944799 10.663991 0.343308 -1.126673 4.152539 -4.162262 -40.318171 -1.871390 -4.427363 69.559642 -2.322892 -9.865107 19.528171 -3.866200 0.000001 -74.945100
-0.551049 17.285336 0.799275 -4.651574 -81.887092 14.230710 -10.126912 0.640122 1.799129 -11.077421 -3.592217 -15.525282 -2.035193 -0.634308 9.901105 0.975378 5.585852 -5.395620 0.280900 -0.000000 -29.948600 10.650699 0.474407 -1.069242 4.415175 -3.784792 -42.663511 -2.047932 -4.618924 72.338313 -2.315379 -9.381894 20.496024 -3.727601 0.000000 -74.632800
-0.540672 17.295833 0.820325 -7.023645 -81.596867 16.848518 -10.140997 0.546690 1.814732 -10.710727 -3.770992 -15.779654 -1.985030 -0.666340 9.801264 0.981977 5.666496 -5.290753 0.300900 0.000000 -29.946900 10.637040 0.607867 -1.015890 4.702774 -3.401600 -45.022882 -2.237077 -4.818488 75.033723 -2.288811 -8.849239 21.044425 -3.514000 0.000000 -74.541300
-0.530582 17.307443 0.842768 -9.567190 -81.280904 19.667755 -10.151319 0.457937 1.843586 -10.290980 -3.958732 -16.097697 -1.930453 -0.696869 9.722787 0.988512 5.741074 -5.184869 0.321500 -0.000000 -29.950100 10.621255 0.742538 -0.956688 5.034702 -3.012306 -47.430425 -2.442836 -5.024105 77.648856 -2.243294 -8.279339 21.186369 -3.241700 0.000000 -74.465000
-0.519795 17.320075 0.866100 -12.143531 -80.965251 22.526662 -10.158532 0.374410 1.874703 -9.839219 -4.155107 -16.414194 -1.871767 -0.726242 9.612240 0.998211 5.840058 -5.057623 0.346900 -0.000000 -29.961700 10.602475 0.886378 -0.899675 5.379007 -2.607745 -49.853313 -2.667108 -5.232637 80.179101 -2.181746 -7.690782 20.966106 -2.931700 -0.000000 -74.523700
-0.508579 17.333594 0.890496 -14.761351 -80.648033 25.440641 -10.166296 0.296809 1.907534 -9.353560 -4.341611 -16.748463 -1.809966 -0.753395 9.486362 1.008550 5.942856 -4.915685 0.375200 0.000000 -29.988600 10.577147 1.040740 -0.840401 5.736976 -2.183974 -52.301876 -2.908695 -5.440638 82.619369 -2.106794 -7.096843 20.444873 -2.603700 0.000000 -74.631500
-0.496524 17.347823 0.915898 -17.387170 -80.334054 28.369989 -10.177680 0.224516 1.938309 -8.840509 -4.509331 -17.091147 -1.745589 -0.777820 9.339559 1.019105 6.047314 -4.757143 0.406400 0.000000 -30.035600 10.541497 1.208259 -0.778948 6.097723 -1.737629 -54.771646 -3.164548 -5.644836 84.961927 -2.021767 -6.508157 19.699586 -2.275000 -0.000000 -74.755899
-0.483642 17.362538 0.942340 -20.017677 -80.021824 31.312878 -10.196764 0.156626 1.964254 -8.301199 -4.642120 -17.449662 -1.679461 -0.798574 9.182915 1.027785 6.136834 -4.587805 0.438700 -0.000000 -30.103700 10.490970 1.389370 -0.713662 6.458718 -1.266089 -57.263286 -3.430332 -5.842151 87.197950 -1.930223 -5.933678 18.813241 -1.959700 0.000000 -74.822600
-0.469534 17.377548 0.969595 -22.604172 -79.715343 34.213470 -10.225595 0.091091 1.982123 -7.745021 -4.743703 -17.805321 -1.611577 -0.815790 9.004757 1.035589 6.220370 -4.403860 0.472900 0.000000 -30.194600 10.421936 1.584866 -0.646730 6.805228 -0.770419 -59.767615 -3.701208 -6.030410 89.317662 -1.836093 -5.379541 17.874142 -1.667300 0.000001 -74.845000
-0.454073 17.392683 0.997498 -25.118700 -79.413304 37.042602 -10.266221 0.025826 1.989958 -7.176981 -4.815275 -18.152277 -1.542019 -0.829292 8.806816 1.042544 6.297902 -4.207324 0.508500 -0.000000 -30.305900 10.331112 1.793576 -0.579245 7.128467 -0.253749 -62.279539 -3.972440 -6.208040 91.312118 -1.742950 -4.849983 16.962220 -1.403501 -0.000000 -74.812300
-0.437086 17.407694 1.026179 -27.568481 -79.109541 39.805241 -10.322012 -0.041656 1.985998 -6.594725 -4.848667 -18.499019 -1.470873 -0.838027 8.606493 1.047140 6.355795 -4.007612 0.543000 0.000001 -30.433500 10.214612 2.013020 -0.511628 7.429789 0.280989 -64.797096 -4.239450 -6.373522 93.172822 -1.654029 -4.350297 16.144441 -1.170900 0.000001 -74.714599
-0.418424 17.422456 1.055321 -29.902226 -78.805051 42.446448 -10.392150 -0.113709 1.969228 -6.006881 -4.860923 -18.827839 -1.397609 -0.842543 8.396483 1.051525 6.410581 -3.802490 0.577800 -0.000000 -30.572000 10.071736 2.240891 -0.447325 7.695151 0.825567 -67.310330 -4.498573 -6.526864 94.893401 -1.571815 -3.881151 15.473546 -0.968001 0.000000 -74.596000
-0.397866 17.436760 1.084978 -32.116657 -78.495594 44.958269 -10.477549 -0.192692 1.938773 -5.412831 -4.854579 -19.140303 -1.321882 -0.842228 8.189312 1.055678 6.459954 -3.599082 0.611400 -0.000000 -30.714900 9.901212 2.473877 -0.388360 7.922943 1.372968 -69.813667 -4.746358 -6.667888 96.468492 -1.497935 -3.443951 14.981431 -0.791900 -0.000000 -74.478500
-0.375531 17.450528 1.114895 -34.178944 -78.181414 47.307418 -10.575963 -0.279976 1.894838 -4.818144 -4.845750 -19.426803 -1.243265 -0.837484 7.985432 1.061393 6.516687 -3.398357 0.644999 -0.000000 -30.856599 9.704569 2.708848 -0.337448 8.103917 1.913354 -72.299955 -4.980372 -6.797565 97.896341 -1.433056 -3.037050 14.680696 -0.637800 -0.000000 -74.392000
-0.351356 17.463587 1.145275 -36.107968 -77.857904 49.509497 -10.688720 -0.377108 1.836727 -4.218113 -4.828507 -19.696727 -1.161637 -0.827199 7.805650 1.067680 6.570418 -3.210651 0.675900 0.000000 -30.990400 9.481430 2.941879 -0.295989 8.244087 2.440924 -74.763743 -5.197841 -6.916045 99.174891 -1.377216 -2.660873 14.566823 -0.501900 -0.000000 -74.345100
-0.325442 17.475870 1.176095 -37.902036 -77.525150 51.560086 -10.814711 -0.485033 1.764198 -3.613905 -4.806511 -19.949227 -1.077011 -0.811150 7.658995 1.074922 6.622425 -3.041518 0.703400 0.000000 -31.113000 9.233589 3.169763 -0.266068 8.342927 2.948022 -77.197810 -5.396791 -7.024331 100.305043 -1.329761 -2.314059 14.620186 -0.380200 -0.000000 -74.348900
-0.297987 17.487337 1.206931 -39.531847 -77.189350 53.428729 -10.948123 -0.603159 1.678326 -3.016145 -4.800295 -20.170823 -0.989472 -0.790420 7.538310 1.085771 6.693350 -2.887300 0.730300 0.000000 -31.219600 8.966632 3.390995 -0.249376 8.387927 3.423956 -79.596687 -5.576610 -7.124588 101.291539 -1.289410 -1.991978 14.810721 -0.268200 0.000000 -74.413400
-0.269013 17.497904 1.237861 -41.024370 -76.850161 55.138873 -11.088833 -0.731689 1.578556 -2.423368 -4.800938 -20.369526 -0.899698 -0.764362 7.459021 1.099045 6.772707 -2.755965 0.754300 0.000000 -31.308200 8.682339 3.603073 -0.246134 8.385435 3.864503 -81.956166 -5.735844 -7.217526 102.136359 -1.255001 -1.695725 15.102096 -0.164600 -0.000000 -74.529299
-0.238910 17.507582 1.268462 -42.364397 -76.515067 56.676679 -11.230887 -0.868941 1.466516 -1.845910 -4.823151 -20.538617 -0.808424 -0.734148 7.414967 1.116581 6.875297 -2.644002 0.777700 0.000000 -31.377100 8.386737 3.805576 -0.255823 8.326192 4.261539 -84.274746 -5.874449 -7.305010 102.843916 -1.225120 -1.423499 15.455741 -0.067800 -0.000000 -74.690400
-0.207843 17.516320 1.299163 -43.606758 -76.180064 58.096477 -11.378672 -1.015614 1.340775 -1.275026 -4.839008 -20.695682 -0.716698 -0.698479 7.427862 1.134840 6.972894 -2.562656 0.795800 -0.000000 -31.429900 8.078637 3.995290 -0.277719 8.229426 4.618078 -86.547687 -5.990947 -7.386714 103.415607 -1.198833 -1.181560 15.833454 0.019400 0.000000 -74.859400
-0.176262 17.524106 1.329154 -44.710250 -75.857146 59.361592 -11.521988 -1.168198 1.205038 -0.729831 -4.877958 -20.828062 -0.625634 -0.659890 7.477630 1.157282 7.094245 -2.501249 0.813600 0.000000 -31.464100 7.767073 4.174102 -0.309006 8.074189 4.923914 -88.778809 -6.086534 -7.464962 103.856526 -1.175116 -0.968652 16.203449 0.097200 0.000000 -75.049300
-0.144299 17.530961 1.358475 -45.702623 -75.546249 60.500407 -11.661310 -1.326130 1.059879 -0.209146 -4.928673 -20.946586 -0.536281 -0.618365 7.570923 1.182274 7.227231 -2.462892 0.829100 0.000000 -31.482199 7.453258 4.340792 -0.347239 7.868173 5.179779 -90.967282 -6.159910 -7.539637 104.163755 -1.153543 -0.791003 16.539512 0.162100 -0.000000 -75.246800
-0.112377 17.536857 1.386744 -46.571612 -75.252590 61.507317 -11.791713 -1.486746 0.908645 0.278479 -5.002616 -21.053231 -0.449616 -0.575401 7.699359 1.210815 7.380720 -2.442758 0.844399 -0.000000 -31.484100 7.142268 4.496051 -0.388390 7.603905 5.381200 -93.116224 -6.210953 -7.611507 104.336422 -1.133897 -0.651822 16.824132 0.211500 0.000000 -75.466900
-0.080664 17.541803 1.414154 -47.342109 -74.973776 62.410914 -11.915625 -1.649838 0.752452 0.737760 -5.087318 -21.160495 -0.366287 -0.530901 7.868074 1.240935 7.540142 -2.443203 0.857300 0.000000 -31.474200 6.834020 4.638187 -0.430220 7.292143 5.530026 -95.221610 -6.238090 -7.680006 104.369990 -1.116115 -0.557284 17.042140 0.241900 -0.000000 -75.663600
-0.049362 17.545795 1.440419 -48.001803 -74.712589 63.204202 -12.029559 -1.813254 0.594770 1.163034 -5.193951 -21.271871 -0.286806 -0.486115 8.068798 1.273461 7.712786 -2.459425 0.869500 0.000000 -31.451900 6.532478 4.767871 -0.468970 6.927150 5.621959 -97.283504 -6.240470 -7.745350 104.259708 -1.100418 -0.509960 17.188965 0.251200 -0.000001 -75.847800
-0.018613 17.548839 1.465487 -48.548372 -74.468829 63.890025 -12.132724 -1.975661 0.438340 1.553824 -5.326444 -21.393563 -0.211405 -0.441719 8.297246 1.308264 7.898360 -2.488677 0.881299 0.000000 -31.417999 6.239811 4.884795 -0.501767 6.509775 5.654061 -99.297352 -6.216338 -7.807210 103.997186 -1.087087 -0.512454 17.263288 0.237700 0.000001 -76.013600
